<svg id="visual" viewBox="0 0 900 600" width="900" height="600" xmlns="http://www.w3.org/2000/svg" xmlns:xlink="http://www.w3.org/1999/xlink" version="1.1"><rect x="0" y="0" width="900" height="600" fill="#ffffff"></rect><defs><linearGradient id="grad1_0" x1="33.3%" y1="0%" x2="100%" y2="100%"><stop offset="20%" stop-color="#114abc" stop-opacity="1"></stop><stop offset="80%" stop-color="#114abc" stop-opacity="1"></stop></linearGradient></defs><defs><linearGradient id="grad1_1" x1="33.3%" y1="0%" x2="100%" y2="100%"><stop offset="20%" stop-color="#114abc" stop-opacity="1"></stop><stop offset="80%" stop-color="#9f9fdf" stop-opacity="1"></stop></linearGradient></defs><defs><linearGradient id="grad1_2" x1="33.3%" y1="0%" x2="100%" y2="100%"><stop offset="20%" stop-color="#ffffff" stop-opacity="1"></stop><stop offset="80%" stop-color="#9f9fdf" stop-opacity="1"></stop></linearGradient></defs><defs><linearGradient id="grad2_0" x1="0%" y1="0%" x2="66.7%" y2="100%"><stop offset="20%" stop-color="#114abc" stop-opacity="1"></stop><stop offset="80%" stop-color="#114abc" stop-opacity="1"></stop></linearGradient></defs><defs><linearGradient id="grad2_1" x1="0%" y1="0%" x2="66.7%" y2="100%"><stop offset="20%" stop-color="#9f9fdf" stop-opacity="1"></stop><stop offset="80%" stop-color="#114abc" stop-opacity="1"></stop></linearGradient></defs><defs><linearGradient id="grad2_2" x1="0%" y1="0%" x2="66.7%" y2="100%"><stop offset="20%" stop-color="#9f9fdf" stop-opacity="1"></stop><stop offset="80%" stop-color="#ffffff" stop-opacity="1"></stop></linearGradient></defs><g transform="translate(900, 0)"><path d="M0 459.7C-47.7 455.6 -95.3 451.4 -142.1 437.2C-188.8 423 -234.5 398.8 -263.9 363.2C-293.3 327.7 -306.3 280.8 -335.7 243.9C-365.2 207.1 -411.2 180.2 -434.6 141.2C-458 102.2 -458.9 51.1 -459.7 0L0 0Z" fill="#d0ceef"></path><path d="M0 306.5C-31.8 303.7 -63.6 300.9 -94.7 291.5C-125.9 282 -156.4 265.9 -175.9 242.2C-195.5 218.5 -204.2 187.2 -223.8 162.6C-243.5 138 -274.1 120.1 -289.8 94.1C-305.4 68.2 -305.9 34.1 -306.5 0L0 0Z" fill="#6973ce"></path><path d="M0 153.2C-15.9 151.9 -31.8 150.5 -47.4 145.7C-62.9 141 -78.2 132.9 -88 121.1C-97.8 109.2 -102.1 93.6 -111.9 81.3C-121.7 69 -137.1 60.1 -144.9 47.1C-152.7 34.1 -153 17 -153.2 0L0 0Z" fill="#114abc"></path></g><g transform="translate(0, 600)"><path d="M0 -459.7C45.1 -446.9 90.3 -434 137.2 -422.3C184.1 -410.5 232.9 -399.9 270.2 -371.9C307.5 -344 333.4 -298.7 351.9 -255.7C370.5 -212.6 381.7 -171.7 398.5 -129.5C415.2 -87.2 437.5 -43.6 459.7 0L0 0Z" fill="#d0ceef"></path><path d="M0 -306.5C30.1 -297.9 60.2 -289.3 91.5 -281.5C122.8 -273.7 155.3 -266.6 180.1 -247.9C205 -229.3 222.2 -199.2 234.6 -170.5C247 -141.8 254.5 -114.5 265.7 -86.3C276.8 -58.1 291.6 -29.1 306.5 0L0 0Z" fill="#6973ce"></path><path d="M0 -153.2C15 -149 30.1 -144.7 45.7 -140.8C61.4 -136.8 77.6 -133.3 90.1 -124C102.5 -114.7 111.1 -99.6 117.3 -85.2C123.5 -70.9 127.2 -57.2 132.8 -43.2C138.4 -29.1 145.8 -14.5 153.2 0L0 0Z" fill="#114abc"></path></g></svg>