<svg id="visual" viewBox="0 0 900 600" width="900" height="600" xmlns="http://www.w3.org/2000/svg" xmlns:xlink="http://www.w3.org/1999/xlink" version="1.1"><rect x="0" y="0" width="900" height="600" fill="#140021"></rect><path d="M0 147L47 147L47 179L95 179L95 131L142 131L142 249L189 249L189 128L237 128L237 346L284 346L284 307L332 307L332 179L379 179L379 289L426 289L426 257L474 257L474 375L521 375L521 207L568 207L568 239L616 239L616 358L663 358L663 134L711 134L711 168L758 168L758 165L805 165L805 315L853 315L853 247L900 247L900 381L900 601L900 601L853 601L853 601L805 601L805 601L758 601L758 601L711 601L711 601L663 601L663 601L616 601L616 601L568 601L568 601L521 601L521 601L474 601L474 601L426 601L426 601L379 601L379 601L332 601L332 601L284 601L284 601L237 601L237 601L189 601L189 601L142 601L142 601L95 601L95 601L47 601L47 601L0 601Z" fill="#560090"></path><path d="M0 223L47 223L47 223L95 223L95 310L142 310L142 383L189 383L189 438L237 438L237 257L284 257L284 214L332 214L332 342L379 342L379 405L426 405L426 223L474 223L474 278L521 278L521 414L568 414L568 280L616 280L616 252L663 252L663 217L711 217L711 420L758 420L758 409L805 409L805 215L853 215L853 245L900 245L900 377L900 601L900 601L853 601L853 601L805 601L805 601L758 601L758 601L711 601L711 601L663 601L663 601L616 601L616 601L568 601L568 601L521 601L521 601L474 601L474 601L426 601L426 601L379 601L379 601L332 601L332 601L284 601L284 601L237 601L237 601L189 601L189 601L142 601L142 601L95 601L95 601L47 601L47 601L0 601Z" fill="#6d00b6"></path><path d="M0 402L47 402L47 264L95 264L95 372L142 372L142 430L189 430L189 263L237 263L237 280L284 280L284 349L332 349L332 421L379 421L379 395L426 395L426 270L474 270L474 456L521 456L521 355L568 355L568 352L616 352L616 450L663 450L663 458L711 458L711 230L758 230L758 279L805 279L805 229L853 229L853 378L900 378L900 295L900 601L900 601L853 601L853 601L805 601L805 601L758 601L758 601L711 601L711 601L663 601L663 601L616 601L616 601L568 601L568 601L521 601L521 601L474 601L474 601L426 601L426 601L379 601L379 601L332 601L332 601L284 601L284 601L237 601L237 601L189 601L189 601L142 601L142 601L95 601L95 601L47 601L47 601L0 601Z" fill="#8500de"></path><path d="M0 448L47 448L47 293L95 293L95 442L142 442L142 421L189 421L189 412L237 412L237 489L284 489L284 404L332 404L332 491L379 491L379 420L426 420L426 457L474 457L474 313L521 313L521 332L568 332L568 487L616 487L616 487L663 487L663 483L711 483L711 303L758 303L758 396L805 396L805 461L853 461L853 395L900 395L900 347L900 601L900 601L853 601L853 601L805 601L805 601L758 601L758 601L711 601L711 601L663 601L663 601L616 601L616 601L568 601L568 601L521 601L521 601L474 601L474 601L426 601L426 601L379 601L379 601L332 601L332 601L284 601L284 601L237 601L237 601L189 601L189 601L142 601L142 601L95 601L95 601L47 601L47 601L0 601Z" fill="#9900ff"></path><path d="M0 384L47 384L47 386L95 386L95 433L142 433L142 338L189 338L189 446L237 446L237 504L284 504L284 476L332 476L332 459L379 459L379 514L426 514L426 425L474 425L474 444L521 444L521 500L568 500L568 419L616 419L616 363L663 363L663 418L711 418L711 350L758 350L758 365L805 365L805 403L853 403L853 496L900 496L900 360L900 601L900 601L853 601L853 601L805 601L805 601L758 601L758 601L711 601L711 601L663 601L663 601L616 601L616 601L568 601L568 601L521 601L521 601L474 601L474 601L426 601L426 601L379 601L379 601L332 601L332 601L284 601L284 601L237 601L237 601L189 601L189 601L142 601L142 601L95 601L95 601L47 601L47 601L0 601Z" fill="#9900ff"></path><path d="M0 477L47 477L47 480L95 480L95 453L142 453L142 448L189 448L189 410L237 410L237 404L284 404L284 543L332 543L332 458L379 458L379 438L426 438L426 490L474 490L474 399L521 399L521 391L568 391L568 470L616 470L616 410L663 410L663 400L711 400L711 456L758 456L758 389L805 389L805 509L853 509L853 490L900 490L900 525L900 601L900 601L853 601L853 601L805 601L805 601L758 601L758 601L711 601L711 601L663 601L663 601L616 601L616 601L568 601L568 601L521 601L521 601L474 601L474 601L426 601L426 601L379 601L379 601L332 601L332 601L284 601L284 601L237 601L237 601L189 601L189 601L142 601L142 601L95 601L95 601L47 601L47 601L0 601Z" fill="#8500de"></path><path d="M0 499L47 499L47 504L95 504L95 570L142 570L142 467L189 467L189 561L237 561L237 444L284 444L284 559L332 559L332 542L379 542L379 472L426 472L426 457L474 457L474 461L521 461L521 464L568 464L568 441L616 441L616 550L663 550L663 498L711 498L711 554L758 554L758 513L805 513L805 534L853 534L853 449L900 449L900 537L900 601L900 601L853 601L853 601L805 601L805 601L758 601L758 601L711 601L711 601L663 601L663 601L616 601L616 601L568 601L568 601L521 601L521 601L474 601L474 601L426 601L426 601L379 601L379 601L332 601L332 601L284 601L284 601L237 601L237 601L189 601L189 601L142 601L142 601L95 601L95 601L47 601L47 601L0 601Z" fill="#6d00b6"></path><path d="M0 598L47 598L47 525L95 525L95 586L142 586L142 537L189 537L189 540L237 540L237 534L284 534L284 572L332 572L332 541L379 541L379 561L426 561L426 552L474 552L474 572L521 572L521 575L568 575L568 496L616 496L616 545L663 545L663 520L711 520L711 589L758 589L758 577L805 577L805 517L853 517L853 508L900 508L900 520L900 601L900 601L853 601L853 601L805 601L805 601L758 601L758 601L711 601L711 601L663 601L663 601L616 601L616 601L568 601L568 601L521 601L521 601L474 601L474 601L426 601L426 601L379 601L379 601L332 601L332 601L284 601L284 601L237 601L237 601L189 601L189 601L142 601L142 601L95 601L95 601L47 601L47 601L0 601Z" fill="#560090"></path></svg>